<mxfile host="app.diagrams.net" agent="Mozilla/5.0 (Windows NT 10.0; Win64; x64; rv:129.0) Gecko/20100101 Firefox/129.0" version="24.7.6">
  <diagram name="Seite-1" id="6KNFjC9qvMSSYQJPCamY">
    <mxGraphModel dx="1858" dy="1086" grid="1" gridSize="10" guides="1" tooltips="1" connect="1" arrows="1" fold="1" page="1" pageScale="1" pageWidth="827" pageHeight="1169" math="0" shadow="0">
      <root>
        <mxCell id="0" />
        <mxCell id="1" parent="0" />
        <mxCell id="c_SHFbjMTj0HTDH2dX4E-7" value="ASKION aWB" style="swimlane;horizontal=0;whiteSpace=wrap;html=1;fillColor=#00CC00;" parent="1" vertex="1">
          <mxGeometry x="50" y="400" width="1510" height="310" as="geometry" />
        </mxCell>
        <mxCell id="c_SHFbjMTj0HTDH2dX4E-23" value="" style="edgeStyle=orthogonalEdgeStyle;rounded=0;orthogonalLoop=1;jettySize=auto;html=1;" parent="c_SHFbjMTj0HTDH2dX4E-7" source="c_SHFbjMTj0HTDH2dX4E-12" edge="1">
          <mxGeometry relative="1" as="geometry">
            <mxPoint x="430" y="130" as="targetPoint" />
          </mxGeometry>
        </mxCell>
        <mxCell id="c_SHFbjMTj0HTDH2dX4E-12" value="Sortierung starten" style="rounded=0;whiteSpace=wrap;html=1;" parent="c_SHFbjMTj0HTDH2dX4E-7" vertex="1">
          <mxGeometry x="160" y="100" width="120" height="60" as="geometry" />
        </mxCell>
        <mxCell id="c_SHFbjMTj0HTDH2dX4E-27" value="" style="edgeStyle=orthogonalEdgeStyle;rounded=0;orthogonalLoop=1;jettySize=auto;html=1;" parent="c_SHFbjMTj0HTDH2dX4E-7" source="c_SHFbjMTj0HTDH2dX4E-19" target="c_SHFbjMTj0HTDH2dX4E-26" edge="1">
          <mxGeometry relative="1" as="geometry" />
        </mxCell>
        <mxCell id="c_SHFbjMTj0HTDH2dX4E-28" value="nein" style="edgeLabel;html=1;align=center;verticalAlign=middle;resizable=0;points=[];" parent="c_SHFbjMTj0HTDH2dX4E-27" vertex="1" connectable="0">
          <mxGeometry x="-0.16" y="2" relative="1" as="geometry">
            <mxPoint as="offset" />
          </mxGeometry>
        </mxCell>
        <mxCell id="c_SHFbjMTj0HTDH2dX4E-30" value="" style="edgeStyle=orthogonalEdgeStyle;rounded=0;orthogonalLoop=1;jettySize=auto;html=1;entryX=0;entryY=0.5;entryDx=0;entryDy=0;" parent="c_SHFbjMTj0HTDH2dX4E-7" target="c_SHFbjMTj0HTDH2dX4E-29" edge="1">
          <mxGeometry relative="1" as="geometry">
            <mxPoint x="627" y="130" as="sourcePoint" />
            <mxPoint x="1027.5" y="130" as="targetPoint" />
            <Array as="points" />
          </mxGeometry>
        </mxCell>
        <mxCell id="c_SHFbjMTj0HTDH2dX4E-31" value="ja" style="edgeLabel;html=1;align=center;verticalAlign=middle;resizable=0;points=[];" parent="c_SHFbjMTj0HTDH2dX4E-30" vertex="1" connectable="0">
          <mxGeometry x="-0.3" y="-2" relative="1" as="geometry">
            <mxPoint x="2" y="8" as="offset" />
          </mxGeometry>
        </mxCell>
        <mxCell id="c_SHFbjMTj0HTDH2dX4E-19" value="" style="rhombus;whiteSpace=wrap;html=1;" parent="c_SHFbjMTj0HTDH2dX4E-7" vertex="1">
          <mxGeometry x="547" y="90" width="80" height="80" as="geometry" />
        </mxCell>
        <mxCell id="c_SHFbjMTj0HTDH2dX4E-24" style="edgeStyle=orthogonalEdgeStyle;rounded=0;orthogonalLoop=1;jettySize=auto;html=1;" parent="c_SHFbjMTj0HTDH2dX4E-7" source="c_SHFbjMTj0HTDH2dX4E-22" target="c_SHFbjMTj0HTDH2dX4E-19" edge="1">
          <mxGeometry relative="1" as="geometry" />
        </mxCell>
        <mxCell id="c_SHFbjMTj0HTDH2dX4E-22" value="Sortierung durchführen" style="whiteSpace=wrap;html=1;rounded=0;" parent="c_SHFbjMTj0HTDH2dX4E-7" vertex="1">
          <mxGeometry x="347" y="100" width="120" height="60" as="geometry" />
        </mxCell>
        <mxCell id="c_SHFbjMTj0HTDH2dX4E-25" value="&lt;div&gt;Sortierung&amp;nbsp;&lt;/div&gt;&lt;div&gt;erfolgreich?&lt;/div&gt;" style="text;html=1;align=center;verticalAlign=middle;resizable=0;points=[];autosize=1;strokeColor=none;fillColor=none;" parent="c_SHFbjMTj0HTDH2dX4E-7" vertex="1">
          <mxGeometry x="467" y="130" width="90" height="40" as="geometry" />
        </mxCell>
        <mxCell id="c_SHFbjMTj0HTDH2dX4E-26" value="Information an Nutzer + Korrekturmaßnahmen" style="shape=process;whiteSpace=wrap;html=1;backgroundOutline=1;" parent="c_SHFbjMTj0HTDH2dX4E-7" vertex="1">
          <mxGeometry x="502" y="230" width="170" height="60" as="geometry" />
        </mxCell>
        <mxCell id="rJmJJguxviZmdggviB7S-4" style="edgeStyle=orthogonalEdgeStyle;rounded=0;orthogonalLoop=1;jettySize=auto;html=1;exitX=1;exitY=0.5;exitDx=0;exitDy=0;entryX=0;entryY=0.5;entryDx=0;entryDy=0;" edge="1" parent="c_SHFbjMTj0HTDH2dX4E-7" source="c_SHFbjMTj0HTDH2dX4E-29" target="rJmJJguxviZmdggviB7S-3">
          <mxGeometry relative="1" as="geometry" />
        </mxCell>
        <mxCell id="c_SHFbjMTj0HTDH2dX4E-29" value="Rackbelegung scannen" style="whiteSpace=wrap;html=1;" parent="c_SHFbjMTj0HTDH2dX4E-7" vertex="1">
          <mxGeometry x="677" y="100" width="120" height="60" as="geometry" />
        </mxCell>
        <mxCell id="c_SHFbjMTj0HTDH2dX4E-9" value="Sortierauftrag" style="shape=parallelogram;html=1;strokeWidth=2;perimeter=parallelogramPerimeter;whiteSpace=wrap;rounded=1;arcSize=12;size=0.23;" parent="c_SHFbjMTj0HTDH2dX4E-7" vertex="1">
          <mxGeometry x="515" y="-30" width="155" height="60" as="geometry" />
        </mxCell>
        <mxCell id="c_SHFbjMTj0HTDH2dX4E-38" style="edgeStyle=orthogonalEdgeStyle;rounded=0;orthogonalLoop=1;jettySize=auto;html=1;entryX=0.5;entryY=0;entryDx=0;entryDy=0;" parent="c_SHFbjMTj0HTDH2dX4E-7" source="c_SHFbjMTj0HTDH2dX4E-9" target="c_SHFbjMTj0HTDH2dX4E-12" edge="1">
          <mxGeometry relative="1" as="geometry">
            <Array as="points">
              <mxPoint x="593" y="50" />
              <mxPoint x="200" y="50" />
            </Array>
          </mxGeometry>
        </mxCell>
        <mxCell id="rJmJJguxviZmdggviB7S-2" value="Übertagung Rack und Belegungsinformationen" style="shape=parallelogram;html=1;strokeWidth=2;perimeter=parallelogramPerimeter;whiteSpace=wrap;rounded=1;arcSize=12;size=0.23;" vertex="1" parent="c_SHFbjMTj0HTDH2dX4E-7">
          <mxGeometry x="850" y="-30" width="155" height="60" as="geometry" />
        </mxCell>
        <mxCell id="rJmJJguxviZmdggviB7S-3" value="Exportdaten zusammenstellen" style="shape=process;whiteSpace=wrap;html=1;backgroundOutline=1;" vertex="1" parent="c_SHFbjMTj0HTDH2dX4E-7">
          <mxGeometry x="835" y="100" width="170" height="60" as="geometry" />
        </mxCell>
        <mxCell id="rJmJJguxviZmdggviB7S-5" style="edgeStyle=orthogonalEdgeStyle;rounded=0;orthogonalLoop=1;jettySize=auto;html=1;entryX=0.439;entryY=1;entryDx=0;entryDy=0;entryPerimeter=0;" edge="1" parent="c_SHFbjMTj0HTDH2dX4E-7" source="rJmJJguxviZmdggviB7S-3" target="rJmJJguxviZmdggviB7S-2">
          <mxGeometry relative="1" as="geometry" />
        </mxCell>
        <mxCell id="rJmJJguxviZmdggviB7S-6" value="Export" style="edgeLabel;html=1;align=center;verticalAlign=middle;resizable=0;points=[];" vertex="1" connectable="0" parent="rJmJJguxviZmdggviB7S-5">
          <mxGeometry x="-0.0556" relative="1" as="geometry">
            <mxPoint as="offset" />
          </mxGeometry>
        </mxCell>
        <mxCell id="c_SHFbjMTj0HTDH2dX4E-8" value="CentraXX" style="swimlane;horizontal=0;whiteSpace=wrap;html=1;fillColor=#D4E1F5;" parent="1" vertex="1">
          <mxGeometry x="47" y="179" width="1510" height="220" as="geometry" />
        </mxCell>
        <mxCell id="c_SHFbjMTj0HTDH2dX4E-15" value="Ende" style="verticalLabelPosition=bottom;verticalAlign=top;html=1;shape=mxgraph.flowchart.on-page_reference;" parent="c_SHFbjMTj0HTDH2dX4E-8" vertex="1">
          <mxGeometry x="1191" y="70" width="60" height="60" as="geometry" />
        </mxCell>
        <mxCell id="c_SHFbjMTj0HTDH2dX4E-35" value="getriggerter Sortierauftragsexport" style="shape=process;whiteSpace=wrap;html=1;backgroundOutline=1;" parent="c_SHFbjMTj0HTDH2dX4E-8" vertex="1">
          <mxGeometry x="507.5" y="90" width="170" height="60" as="geometry" />
        </mxCell>
        <mxCell id="c_SHFbjMTj0HTDH2dX4E-4" style="edgeStyle=orthogonalEdgeStyle;rounded=0;orthogonalLoop=1;jettySize=auto;html=1;" parent="c_SHFbjMTj0HTDH2dX4E-8" source="c_SHFbjMTj0HTDH2dX4E-1" target="c_SHFbjMTj0HTDH2dX4E-3" edge="1">
          <mxGeometry relative="1" as="geometry" />
        </mxCell>
        <mxCell id="c_SHFbjMTj0HTDH2dX4E-1" value="Start" style="verticalLabelPosition=bottom;verticalAlign=top;html=1;shape=mxgraph.flowchart.on-page_reference;" parent="c_SHFbjMTj0HTDH2dX4E-8" vertex="1">
          <mxGeometry x="50" y="90" width="60" height="60" as="geometry" />
        </mxCell>
        <mxCell id="c_SHFbjMTj0HTDH2dX4E-6" value="" style="edgeStyle=orthogonalEdgeStyle;rounded=0;orthogonalLoop=1;jettySize=auto;html=1;" parent="c_SHFbjMTj0HTDH2dX4E-8" source="c_SHFbjMTj0HTDH2dX4E-3" target="c_SHFbjMTj0HTDH2dX4E-5" edge="1">
          <mxGeometry relative="1" as="geometry" />
        </mxCell>
        <mxCell id="c_SHFbjMTj0HTDH2dX4E-3" value="Sortierregel an Probe hinterlegen" style="rounded=0;whiteSpace=wrap;html=1;" parent="c_SHFbjMTj0HTDH2dX4E-8" vertex="1">
          <mxGeometry x="160" y="90" width="110" height="60" as="geometry" />
        </mxCell>
        <mxCell id="c_SHFbjMTj0HTDH2dX4E-5" value="Rack auf Lagerort &quot;aWB input&quot; umlagern" style="whiteSpace=wrap;html=1;rounded=0;" parent="c_SHFbjMTj0HTDH2dX4E-8" vertex="1">
          <mxGeometry x="345" y="90" width="120" height="60" as="geometry" />
        </mxCell>
        <mxCell id="c_SHFbjMTj0HTDH2dX4E-36" style="edgeStyle=orthogonalEdgeStyle;rounded=0;orthogonalLoop=1;jettySize=auto;html=1;entryX=0;entryY=0.5;entryDx=0;entryDy=0;" parent="c_SHFbjMTj0HTDH2dX4E-8" source="c_SHFbjMTj0HTDH2dX4E-5" target="c_SHFbjMTj0HTDH2dX4E-35" edge="1">
          <mxGeometry relative="1" as="geometry" />
        </mxCell>
        <mxCell id="rJmJJguxviZmdggviB7S-8" value="Ürberprüfung " style="shape=process;whiteSpace=wrap;html=1;backgroundOutline=1;" vertex="1" parent="c_SHFbjMTj0HTDH2dX4E-8">
          <mxGeometry x="853" y="90" width="170" height="60" as="geometry" />
        </mxCell>
        <mxCell id="c_SHFbjMTj0HTDH2dX4E-37" style="edgeStyle=orthogonalEdgeStyle;rounded=0;orthogonalLoop=1;jettySize=auto;html=1;" parent="1" source="c_SHFbjMTj0HTDH2dX4E-35" target="c_SHFbjMTj0HTDH2dX4E-9" edge="1">
          <mxGeometry relative="1" as="geometry" />
        </mxCell>
        <mxCell id="rJmJJguxviZmdggviB7S-7" style="edgeStyle=orthogonalEdgeStyle;rounded=0;orthogonalLoop=1;jettySize=auto;html=1;" edge="1" parent="1" source="rJmJJguxviZmdggviB7S-2">
          <mxGeometry relative="1" as="geometry">
            <mxPoint x="977" y="330" as="targetPoint" />
          </mxGeometry>
        </mxCell>
      </root>
    </mxGraphModel>
  </diagram>
</mxfile>
